<svg xmlns="http://www.w3.org/2000/svg" viewBox="0 0 965.61 357.11"><defs><style>.cls-1{fill:#fff;}</style></defs><title>Asset 1</title><g id="Layer_2" data-name="Layer 2"><g id="Layer_1-2" data-name="Layer 1"><path class="cls-1" d="M.87,249h3.6q3,14,9.64,20.37a21.44,21.44,0,0,0,15.25,6.36q8.36,0,11.87-4.36a14.44,14.44,0,0,0,3.52-9.2,12.16,12.16,0,0,0-3.67-9.16q-2.43-2.33-9.86-6.05l-8-4q-11.85-6-16.72-11.85a21.88,21.88,0,0,1-4.88-14.47,26.56,26.56,0,0,1,6.46-17.1q6.45-8,19.77-7.94A41.93,41.93,0,0,1,41,193.68a49.48,49.48,0,0,0,7.23,2.08,3.13,3.13,0,0,0,2.82-1.19,10.22,10.22,0,0,0,1.26-3.15h3.73v27.22H52.57A38.22,38.22,0,0,0,44,202.35a19.48,19.48,0,0,0-15-6.84q-6.21,0-9.81,3.45a11.17,11.17,0,0,0-3.61,8.4q0,5.92,3.38,8.86T33.78,225L43,229.66a36.5,36.5,0,0,1,9.84,6.89,23.81,23.81,0,0,1,6.86,17.2q0,9.47-7.36,17.85T28.79,280a41.3,41.3,0,0,1-15.07-2.86l-2.4-.92c-.57-.16-1.11-.29-1.63-.4a7.19,7.19,0,0,0-1.32-.15,2.89,2.89,0,0,0-2.64,1.13A11.42,11.42,0,0,0,4.47,280H.87Z"/><path class="cls-1" d="M69.29,193.74h75.26l.12,25.21h-3.6q-1.77-13.53-10.13-18.3-4.71-2.64-14-2.88v65.85q0,6.9,2.41,9.16t10,2.26v3.17H84.79V275q7.33,0,9.74-2.29t2.41-9.13V197.77c-6.11.16-10.78,1.12-14,2.88q-9,4.89-10.13,18.3h-3.6Z"/><path class="cls-1" d="M151.38,278.21V275c3.58-.12,6.13-.61,7.63-1.46q3.48-2,3.48-7.33V205.7c0-3.63-1.2-6.08-3.6-7.33-1.38-.77-3.89-1.25-7.51-1.46v-3.17h72V219h-3.05q-2.39-12.09-8.09-16.54T191.48,198q-5.73,0-7.29,1.19c-1,.8-1.56,2.37-1.56,4.73V232.8q10.68.13,14.47-3.87t5.8-14.62h3.17v42.24H202.9q-1.35-10.68-5.47-15.05t-14.8-4.36v30.27q0,4,2.05,5.4t8.39,1.44q12,0,19.53-4.64T226,252.21h3.48l-5.07,26Z"/><path class="cls-1" d="M232.26,278.21V275q5.37-.18,7.63-1.46,3.47-2,3.47-7.33V205.7c0-3.63-1.2-6.08-3.6-7.33-1.38-.77-3.88-1.25-7.5-1.46v-3.17h72V219h-3q-2.39-12.09-8.09-16.54T272.36,198q-5.75,0-7.3,1.19c-1,.8-1.56,2.37-1.56,4.73V232.8q10.69.13,14.47-3.87t5.8-14.62h3.17v42.24h-3.17q-1.35-10.68-5.46-15.05t-14.81-4.36v30.27c0,2.65.69,4.45,2.05,5.4s4.16,1.44,8.39,1.44q12,0,19.53-4.64t13.43-17.4h3.48l-5.06,26Z"/><path class="cls-1" d="M313.37,275q5.13-.18,7.33-1.34c2.48-1.31,3.72-3.79,3.72-7.46V205.7c0-3.63-1.18-6.08-3.54-7.33-1.38-.77-3.88-1.25-7.51-1.46v-3.17h43.71v3.17q-7.63.26-10.17,2.13c-1.68,1.26-2.53,4.35-2.53,9.29V267.4c0,2.77.72,4.61,2.17,5.5s4.26,1.35,8.45,1.35q11.29,0,18.95-5t13.22-19.38h3.66l-5.07,28.32H313.37Z"/><path class="cls-1" d="M394,278.21V275c3.58-.12,6.13-.61,7.63-1.46q3.48-2,3.48-7.33V205.7c0-3.63-1.2-6.08-3.6-7.33-1.38-.77-3.88-1.25-7.51-1.46v-3.17h72V219h-3q-2.39-12.09-8.09-16.54T434.1,198q-5.73,0-7.29,1.19c-1,.8-1.56,2.37-1.56,4.73V232.8q10.69.13,14.47-3.87t5.8-14.62h3.17v42.24h-3.17q-1.35-10.68-5.46-15.05t-14.81-4.36v30.27c0,2.65.69,4.45,2.05,5.4s4.16,1.44,8.39,1.44q12,0,19.53-4.64t13.43-17.4h3.48l-5.07,26Z"/><path class="cls-1" d="M510.07,231.09a47.8,47.8,0,0,1-1.85-4.51,46.13,46.13,0,0,1-1.48-4.64c-.33-1.3-.59-2.61-.8-3.94a25.85,25.85,0,0,1-.31-3.87A20.65,20.65,0,0,1,511,199.54a17.67,17.67,0,0,1,13.58-5.8q7.5,0,12.31,4.09a13.68,13.68,0,0,1,4.81,11A16.43,16.43,0,0,1,535.6,222a55,55,0,0,1-13.1,8.24q5.41,9.76,8,13.79t8.65,11.91q6.52-7.94,9-13.55t2.5-9q0-3.41-2.5-4.7a16.51,16.51,0,0,0-5.5-1.09V225h27.13v2.63a20.31,20.31,0,0,0-6.15,1.46A13.52,13.52,0,0,0,558,235l-3.2,5.8q-3.45,6.22-5.76,9.52t-6.92,9.09a70,70,0,0,0,5.61,5.8q6.84,5.81,13.68,5.8a11.88,11.88,0,0,0,6.9-1.95,27.94,27.94,0,0,0,4.62-4.7l1.84,1.46a16.86,16.86,0,0,1-2.59,4.61,27.88,27.88,0,0,1-4.25,4.92,18.56,18.56,0,0,1-7.45,4,17.66,17.66,0,0,1-4.93.74,21.88,21.88,0,0,1-11.83-3.73,65.76,65.76,0,0,1-9.36-7.75,45.58,45.58,0,0,1-11.18,7.75A35.94,35.94,0,0,1,506.93,280q-9.82,0-15.69-5.21t-5.87-14.26a23,23,0,0,1,5.24-14.92,50.54,50.54,0,0,1,14.68-11.75Zm11.63,40.29a30,30,0,0,0,9.42-6.17q-5.79-7.32-9-12.33T512,235.43a41.77,41.77,0,0,0-9.72,7.44,19.32,19.32,0,0,0-5.16,13.31,17.54,17.54,0,0,0,4.55,12.06,15,15,0,0,0,11.69,5.09A23.51,23.51,0,0,0,521.7,271.38Zm7.91-51.33q5.45-5.25,5.44-11.6a10.68,10.68,0,0,0-2.78-7.69,9.29,9.29,0,0,0-7-2.93,8.9,8.9,0,0,0-7.18,3,11.88,11.88,0,0,0-2.53,7.94,27.91,27.91,0,0,0,1.41,8.33,72.49,72.49,0,0,0,3.66,9.24A44.46,44.46,0,0,0,529.61,220.05Z"/><path class="cls-1" d="M582.11,275c4.23-.2,7.12-1,8.66-2.38s2.32-4.39,2.32-9v-55.3q0-7.23-2.74-9.41-1.83-1.46-8.24-2v-3.17h40.22q12.51,0,20.26,2.63,15,5.31,15,19.1,0,10.2-7.86,16.05A30.83,30.83,0,0,1,637,237.14l26.56,35.58a5.14,5.14,0,0,0,2.2,1.92,9.63,9.63,0,0,0,2.87.58v3H642.57l-29.16-39.06h0v24.48q0,6.58,2.19,8.88c1.47,1.52,4.4,2.37,8.79,2.53v3.17H582.11Zm48.8-43.37q5.26-3.25,5.27-15.1,0-7.26-2-11.48Q630.69,198,621.48,198q-5,0-6.57,1.25a5,5,0,0,0-1.55,4.12v31.8Q625.63,234.94,630.91,231.67Z"/><path class="cls-1" d="M748.13,204.06Q761,216.57,761,236.28t-12.88,32.23q-12.57,12.21-31.43,12.21-20,0-32.65-13.37-11.79-12.57-11.78-30.4,0-19.65,12.33-32.28,12.45-12.82,32.1-12.82Q735.63,191.85,748.13,204.06ZM736,259.84q2.81-9,2.81-23.56,0-20-6-30.09t-16.17-10.13q-14.17,0-19.43,16.91-2.76,9-2.75,23.31,0,14.6,2.81,23.56,5.19,16.67,19.37,16.66T736,259.84Z"/><path class="cls-1" d="M802,193.74v3a19.42,19.42,0,0,0-6.19,1.29c-1.12.57-1.68,1.87-1.68,3.91a11.35,11.35,0,0,0,.18,1.86,16.83,16.83,0,0,0,.55,2.23l15.32,43.77h.26l14.28-36.62q.12-.31-1.74-5.59a50,50,0,0,0-2.61-6.51,8.79,8.79,0,0,0-3.08-3.11,16.45,16.45,0,0,0-6.07-1.23v-3h39.06v3a28.69,28.69,0,0,0-7.17,1.17q-1.8.72-1.8,3.3a12.84,12.84,0,0,0,.4,2.35q.39,1.74,1.37,4.8l14.35,40.28h-.52l13.63-41.14a17.52,17.52,0,0,0,.61-2.35,14.8,14.8,0,0,0,.25-2.78c0-2.33-.88-3.87-2.63-4.65a19.19,19.19,0,0,0-6-1v-3h22.89v3a11.37,11.37,0,0,0-4.46,1.47q-2.75,1.89-4.27,6.54l-25,75.49h-3.3l-21-58.68h-.85l-22.89,58.68h-3.48L774,204.8c-1.13-3.25-2.28-5.32-3.41-6.2a11.18,11.18,0,0,0-5.31-1.81v-3Z"/><path class="cls-1" d="M887.48,278.21V275c3.58-.12,6.13-.61,7.63-1.46q3.48-2,3.48-7.33V205.7c0-3.63-1.2-6.08-3.6-7.33-1.38-.77-3.89-1.25-7.51-1.46v-3.17h72V219h-3q-2.38-12.09-8.09-16.54T927.58,198q-5.73,0-7.29,1.19c-1,.8-1.56,2.37-1.56,4.73V232.8q10.68.13,14.47-3.87t5.8-14.62h3.17v42.24H939q-1.35-10.68-5.47-15.05t-14.8-4.36v30.27q0,4,2,5.4t8.39,1.44q12,0,19.53-4.64t13.43-17.4h3.48l-5.07,26Z"/><path class="cls-1" d="M10.31,354a20.64,20.64,0,0,1-7.57-8.85,34.72,34.72,0,0,1,0-27.11,20.86,20.86,0,0,1,7.73-8.93A20.58,20.58,0,0,1,21.67,306a16.72,16.72,0,0,1,7.58,1.72A19.51,19.51,0,0,1,35,312L32,315.71a13.22,13.22,0,0,0-10.2-4.8,14.28,14.28,0,0,0-8.4,2.52,16.31,16.31,0,0,0-5.59,7.12,27.53,27.53,0,0,0-2,10.91,28.86,28.86,0,0,0,1.92,11,16.08,16.08,0,0,0,5.47,7.24,14,14,0,0,0,8.36,2.55,13.7,13.7,0,0,0,6.27-1.43,19.65,19.65,0,0,0,5.44-4.27L36.3,350a20.8,20.8,0,0,1-6.68,5.32,18.66,18.66,0,0,1-8.32,1.8A20.06,20.06,0,0,1,10.31,354Z"/><path class="cls-1" d="M105.45,340.69H87.07l-5,15.52H76.42L93.3,306.94h6.15l16.8,49.27H110.4ZM104,336.26l-2.55-7.95q-3-9.36-5.1-16.72h-.3q-2.47,9.07-5,16.72l-2.55,7.95Z"/><path class="cls-1" d="M160.8,306.94h14.25q7.88,0,12.34,3t4.46,9.11a11.58,11.58,0,0,1-1.95,6.64,10.06,10.06,0,0,1-5.4,4v.3A13,13,0,0,1,192,333.9a11.37,11.37,0,0,1,2.74,7.91q0,7.05-5,10.73t-13.54,3.67H160.8Zm13.12,21.15q12.45,0,12.45-8.4c0-2.95-1-5.07-3-6.38s-5.05-1.95-9.15-1.95h-7.87v16.73Zm1.35,23.7q6.75,0,10.35-2.51c2.4-1.68,3.6-4.21,3.6-7.62q0-9.29-13.95-9.3h-8.92v19.43Z"/><path class="cls-1" d="M242,306.94h5.55v49.27H242Z"/><path class="cls-1" d="M298.65,306.94h5.7L323,338.89l5.4,10.12h.3l-.23-3.3c-.05-.8-.15-2.48-.3-5.06s-.22-4.91-.22-7v-26.7h5.25v49.27h-5.7l-18.6-31.95-5.4-10.12h-.3l.22,3.6q.53,6.52.53,11.47v27h-5.25Z"/><path class="cls-1" d="M384.3,306.94h28v4.72H389.85v16.28h18.9v4.65h-18.9v18.9H413v4.72H384.3Z"/><path class="cls-1" d="M471.29,311.66H456.14v-4.72h35.78v4.72H476.84v44.55h-5.55Z"/><path class="cls-1" d="M538.27,306.94h6.82l9.68,27,3.6,10.42h.3c.35-.95.83-2.37,1.42-4.27q1.2-3.6,2.1-6.15l9.53-27h6.9v49.27h-5.18v-28.5c0-3,.23-7.74.68-14.25h-.3l-3.9,11.18-9.6,26.47h-3.9l-9.67-26.47-3.91-11.18h-.3l.15,1.88q.6,7.95.6,12.37v28.5h-5Z"/><path class="cls-1" d="M652.12,340.69H633.74l-5,15.52h-5.63L640,306.94h6.15l16.8,49.27h-5.85Zm-1.43-4.43-2.55-7.95q-3-9.36-5.1-16.72h-.3q-2.47,9.07-5,16.72l-2.55,7.95Z"/><path class="cls-1" d="M707.47,306.94H713v25.42h.15l21.37-25.42h6.3l-15.52,18.67,17.85,30.6h-6.23l-15.07-26.32L713,340.31v15.9h-5.55Z"/><path class="cls-1" d="M787.79,306.94h5.55v49.27h-5.55Z"/><path class="cls-1" d="M844.42,306.94h5.7l18.6,31.95,5.4,10.12h.3l-.23-3.3c-.05-.8-.15-2.48-.3-5.06s-.22-4.91-.22-7v-26.7h5.25v49.27h-5.7l-18.6-31.95-5.4-10.12h-.3l.22,3.6q.52,6.52.53,11.47v27h-5.25Z"/><path class="cls-1" d="M937.6,354a20.57,20.57,0,0,1-7.76-8.85,31,31,0,0,1-2.77-13.58A30.32,30.32,0,0,1,929.92,318a21.05,21.05,0,0,1,8-8.89A21.89,21.89,0,0,1,949.49,306a18.91,18.91,0,0,1,14,6l-3.08,3.67a14.29,14.29,0,0,0-10.8-4.8,15.69,15.69,0,0,0-8.89,2.52,16.31,16.31,0,0,0-5.85,7.12,26.65,26.65,0,0,0-2.06,10.91q0,9.6,4.43,15.19t12.3,5.59a16.61,16.61,0,0,0,5.32-.86,11.71,11.71,0,0,0,4.13-2.29V335.66h-10.8V331h15.9v20.4a17.44,17.44,0,0,1-6.38,4.17,23.64,23.64,0,0,1-8.7,1.53A21.36,21.36,0,0,1,937.6,354Z"/><path class="cls-1" d="M540.6,77.3c0,.81,0,1.63,0,2.44C540.62,78.9,540.61,78.08,540.6,77.3Z"/><path class="cls-1" d="M962,74.52c0-34.13-17.4-63.66-52-71.84-25.17-5.94-53.6-.5-79,2-31,3.06-62,6.48-93,9.49-25.37,2.46-48.81,3.6-74.23-.41-19.81-3.14-39.52-7.4-59.67-7.57-25.23-.22-49.51,6.54-71.88,18l-31.58,2.94c-33.69,18.37-81.45,51.52-130.22-2.23L4.6,28.6,6.29,141.93l367-1.53c42-58.34,92.05-22.18,127.62-9.64l32.22,1.71c20.19,9.92,42,17.2,64.57,17.75,18.45.45,36.59-2.88,54.63-6.3,16.45-3.12,33.16-6.36,50-6.3,9.4,0,18.85.91,28.22,1.62,30.55,2.3,61.07,5.15,91.6,7.69,25.54,2.13,53.09,6.74,78.69,3.43,18-2.32,35.27-10.23,46.69-24.65C959.2,111,962.28,92.85,962,74.52ZM504.78,122c-34.21-16.52-95.59-42.44-131.87,7.59L28,127.36,26.72,42.51l343.56-7.89c32.79,40.38,87,28.6,132.14,1,0,0,9.64,14.38,9.91,44.36C512.55,105.94,504.78,122,504.78,122Zm378.68,19.43c-44.33-2.9-88.55-7.42-132.84-10.86-16.24-1.26-32.59-2.81-48.88-2.85-25.66,0-50.32,6.3-75.39,10.79-29.78,5.33-57.58,2.9-84.43-12,14.3-28.35,14-67.53-.83-95.63,19.11-11,40.06-16.8,62.15-15.87,20.21.86,39.93,6.09,59.86,9.08,32,4.79,63.18,1.43,95.1-1.69,37.22-3.65,74.39-7.83,111.63-11.26,19-1.76,38.66-3.08,55.64,7.49C943.65,30,951.12,51,952.1,71.57c.89,18.83-3.32,39.4-16.84,53.32S902.08,142.67,883.46,141.45Z"/><path class="cls-1" d="M540.62,79.74a111.08,111.08,0,0,1-.43,11.54c.33-4.4.44-8.64.41-12.51C540.61,79.1,540.62,79.42,540.62,79.74Z"/><path class="cls-1" d="M628,14s41.31,56.87,1.11,127.35l-10.24.09S657.27,84,618.69,14.1Z"/><path class="cls-1" d="M652.44,13.81s41.31,56.87,1.11,127.35l-10.25.09s38.45-57.46-.14-127.36Z"/><path class="cls-1" d="M880.29,4.25s52.21,65.59,1.26,143.91l-30.71.27s55.4-72.74-.28-143.92Z"/></g></g></svg>